<?xml version="1.0" encoding="utf-8"?>
<svg version="1.1" id="Layer_1" xmlns="http://www.w3.org/2000/svg" x="0px" y="0px" width="784px" viewBox="0 0 784 1024" enable-background="new 0 0 784 1024" xmlns:bx="https://boxy-svg.com" height="1024px"><defs><bx:export><bx:file format="svg" path="head.svg"/><bx:file format="png" path="head.png"/></bx:export></defs><path opacity="1.000000" stroke="none" d="M 328.726 857.442 C 328.265 856.886 328.081 856.564 327.812 856.353 C 315.873 846.997 313.395 834.674 313.989 819.992 C 314.875 798.081 315.119 776.066 313.273 754.125 C 312.105 740.237 309.809 726.624 304.571 713.607 C 302.947 709.572 300.622 707.013 296.04 706.054 C 290.391 704.871 284.752 703.187 279.451 700.921 C 274.04 698.608 270.949 700.22 267.531 704.593 C 260.829 713.169 253.378 721.156 246.466 729.576 C 243.574 733.099 240.914 733.263 236.907 731.33 C 220.913 723.615 205.01 715.778 189.97 706.262 C 185.536 703.458 183.773 700.565 185.538 695.062 C 188.914 684.534 191.368 673.714 194.45 663.087 C 195.647 658.96 194.763 656.203 191.278 653.566 C 177.908 643.458 165.964 631.795 155.163 618.997 C 152.326 615.636 149.636 614.602 145.183 615.969 C 131.919 620.045 118.441 623.417 105.154 627.419 C 100.987 628.675 98.679 627.529 96.367 624.154 C 86.409 609.623 77.298 594.654 70.549 578.303 C 69.034 574.635 69.335 572.317 72.316 569.59 C 81.65 561.048 90.665 552.157 99.926 543.533 C 102.291 541.328 102.957 539.377 101.702 536.185 C 95.383 520.118 90.846 503.512 87.652 486.558 C 86.965 482.907 85.335 481.162 81.642 480.448 C 70.089 478.214 58.618 475.557 47.074 473.273 C 42.57 472.383 40.385 470.518 39.646 465.478 C 37.048 447.742 37.597 430.128 39.843 412.447 C 40.337 408.56 41.768 406.606 45.836 405.879 C 57.756 403.749 69.57 401.026 81.493 398.906 C 85.596 398.176 87.379 396.432 88.076 392.307 C 90.743 376.502 95.021 361.105 101.055 346.239 C 102.306 343.157 101.661 341.03 99.341 338.78 C 90.383 330.089 81.674 321.137 72.619 312.553 C 69.8 309.88 69.451 307.697 71.157 304.321 C 78.94 288.919 87.634 274.101 97.747 260.086 C 100.765 255.904 103.626 255.174 108.412 256.903 C 120.305 261.202 132.436 264.835 144.399 268.951 C 147.685 270.083 149.78 269.659 152.11 266.882 C 164.352 252.298 178.047 239.172 193.032 227.424 C 195.978 225.115 196.622 222.649 195.433 219.156 C 191.752 208.35 188.426 197.42 184.617 186.661 C 183.368 183.137 184.202 181.102 187.059 179.128 C 203.165 167.994 220.362 158.857 238.169 150.795 C 241.222 149.414 243.104 150.593 245.037 152.736 C 252.923 161.481 261.02 170.044 268.707 178.96 C 271.338 182.009 273.519 182.452 277.248 181.105 C 293.786 175.136 310.617 170.14 328.081 167.624 C 331.74 167.096 333.498 165.058 334.237 161.513 C 336.495 150.682 339.068 139.916 341.246 129.07 C 342.044 125.094 343.942 123.712 347.974 123.343 C 367.1 121.591 386.183 121.63 405.303 123.396 C 409.376 123.773 411.162 125.533 411.898 129.406 C 413.932 140.099 416.314 150.725 418.35 161.417 C 419.083 165.265 421.047 167.076 424.898 167.645 C 442.355 170.218 459.187 175.202 475.601 181.565 C 479.017 182.89 481.13 182.151 483.42 179.633 C 491.228 171.053 499.255 162.672 507.018 154.054 C 509.487 151.314 511.68 150.528 515.238 152.163 C 531.719 159.734 547.58 168.386 562.902 178.096 C 567.326 180.899 568.79 183.634 566.843 188.848 C 562.974 199.21 559.9 209.868 556.232 220.308 C 554.895 224.109 555.851 226.485 558.91 228.881 C 573.337 240.18 586.778 252.556 598.46 266.714 C 600.947 269.726 603.25 269.903 606.653 268.653 C 618.027 264.474 629.539 260.663 640.922 256.504 C 644.662 255.139 647.031 255.841 649.375 259.175 C 659.706 273.863 669.135 289.06 677.112 305.173 C 678.94 308.868 678.384 311.23 675.501 313.9 C 666.989 321.78 658.743 329.944 650.2 337.789 C 647.34 340.416 646.6 342.842 647.994 346.568 C 653.546 361.389 658.079 376.534 660.94 392.117 C 661.649 395.977 663.386 397.665 667.311 398.354 C 679.064 400.419 690.723 403.024 702.457 405.21 C 706.089 405.887 707.843 407.501 708.451 411.279 C 711.43 429.814 711.281 448.347 709.075 466.926 C 708.618 470.779 706.669 472.708 702.777 473.442 C 691.391 475.588 680.095 478.222 668.694 480.278 C 663.293 481.252 662.386 484.136 663.169 488.905 C 664.763 498.591 669.866 506.61 675.15 514.476 C 691.022 538.108 707.125 561.584 723.071 585.168 C 726.847 590.752 729.828 596.628 729.469 603.756 C 729.144 610.194 726.543 615.212 721.379 618.978 C 715.629 623.174 709.101 625.768 702.486 628.182 C 700.342 628.963 698.195 629.75 696.021 630.444 C 677.402 636.386 674.715 648.606 681.967 666.282 C 682.626 667.893 683.683 669.344 684.577 670.855 C 687.388 675.606 691.633 679.89 689.103 686.256 C 686.111 693.785 682.286 700.559 674.33 703.92 C 672.412 704.731 670.26 705.108 668.759 706.791 C 668.571 708.961 670.454 709.732 671.605 710.923 C 674.827 714.256 677.429 717.931 678.879 722.388 C 681.465 730.34 679.907 735.906 672.766 740.029 C 660.46 747.136 655.68 758.129 655.356 771.629 C 655.127 781.118 655.059 790.615 655.134 800.107 C 655.169 804.714 653.569 806.604 648.636 806.593 C 582.18 806.468 515.725 806.519 449.269 806.493 C 447.584 806.493 445.724 806.978 444.251 805.457 C 443.511 803.028 445.555 802.09 446.849 800.804 C 459.497 788.246 474.776 779.579 490.428 771.499 C 511.051 760.853 532.973 752.986 553.489 742.102 C 580.868 727.577 604.238 708.66 619.745 681.264 C 623.025 675.468 625.996 669.416 628.347 663.193 C 632.967 650.967 641.137 641.982 651.944 635.018 C 655.777 632.548 659.568 629.915 662.978 626.905 C 678.737 612.992 680.4 591.798 667.449 572.508 C 660.669 562.409 652.275 553.601 644.735 544.109 C 632.782 529.062 623.236 512.823 619.765 493.602 C 617.929 483.433 619.359 473.267 620.341 463.148 C 623.48 430.83 620.139 399.144 609.378 368.613 C 585.826 301.799 540.514 254.922 476.085 226.252 C 439.961 210.179 401.949 203.265 362.554 205.423 C 304.851 208.583 253.768 228.818 209.992 266.843 C 174.877 297.344 150.2 334.641 137.092 379.398 C 129.085 406.741 126.694 434.774 129.97 462.893 C 140.375 552.204 189.048 614.11 268.611 653.181 C 292.069 664.7 317.233 670.609 343.117 672.783 C 359.496 674.16 374.092 666.224 381.404 647.266 C 393.623 615.591 393.461 583.526 381.833 551.894 C 363.016 500.708 325.807 471.345 272.083 463.695 C 233.253 458.168 198.181 467.964 167.89 493.381 C 164.176 496.497 162.928 494.831 161.892 491.088 C 156.096 470.17 154.866 448.802 156.219 427.313 C 157.94 399.976 165.089 373.934 177.702 349.624 C 204.451 298.076 245.687 263.046 300.365 243.857 C 328.36 234.031 357.328 230.243 386.945 231.249 C 388.837 231.313 390.876 231.033 392.275 233.025 C 392.37 235.758 390.153 237.257 388.686 239.119 C 369.035 264.056 357.048 292.059 354.734 323.92 C 350.253 385.593 374.192 434.722 420.961 473.749 C 438.429 488.325 458.257 499.507 476.812 512.514 C 492.401 523.443 507.616 534.795 518.06 551.218 C 539.286 584.592 535.558 630.68 507.693 659.402 C 494.518 672.985 478.996 683.028 462.258 691.459 C 442.169 701.576 421.897 711.353 403.73 724.868 C 374.14 746.882 354.447 775.343 345.785 811.461 C 341.859 827.837 340.45 844.355 340.065 861.068 C 340.023 862.894 340.696 864.959 338.481 866.941 C 334.541 864.759 332.089 860.857 328.726 857.442 Z" fill="#bd50d1"/><path opacity="1.000000" stroke="none" d="M 467.849 470.461 C 450.654 459.392 434.005 448.174 420.39 433.232 C 397.998 408.655 384.825 379.903 382.749 346.508 C 380.224 305.899 394.54 271.549 422.025 242.151 C 425.378 238.564 428.559 237.299 433.564 238.782 C 512.209 262.109 564.811 311.717 587.491 391.345 C 594.798 417 596.216 443.199 592.4 469.661 C 588.132 499.263 598.226 524.997 614.139 549.099 C 620.842 559.252 628.702 568.487 637.033 577.32 C 640.938 581.462 644.044 586.084 646.507 591.189 C 650.489 599.443 649.141 604.448 641.296 609.46 C 634.634 613.717 627.817 617.688 622.223 623.453 C 615.142 630.749 609.36 638.941 605.828 648.41 C 591.539 686.729 562.384 709.701 526.399 725.435 C 500.464 736.775 474.546 747.966 450.427 763.051 C 412.15 786.989 393.655 821.676 392.711 866.276 C 392.447 878.754 392.639 891.242 392.567 903.723 C 392.553 906.101 393.119 908.673 391.088 910.582 C 389.161 910.886 388.073 909.588 386.837 908.665 C 381.762 904.884 376.875 900.825 371.601 897.351 C 366.512 894 364.767 889.778 364.771 883.674 C 364.785 863.093 364.975 842.59 369.624 822.372 C 377.917 786.307 399.076 759.562 429.316 739.312 C 446.312 727.929 465.046 719.708 482.877 709.845 C 503.284 698.557 523.046 686.206 536.809 666.752 C 562.316 630.69 566.784 591.984 550.494 550.808 C 540.936 526.651 523.851 508.886 503.191 494.164 C 491.749 486.009 479.856 478.484 467.849 470.461 Z" fill="#bd50d1"/><path opacity="1.000000" stroke="none" d="M 267.595 621.191 C 228.707 600.618 199.206 571.182 178.873 532.604 C 174.83 524.934 175.025 524.337 181.398 518.196 C 199.374 500.874 221.025 492.123 245.767 490.538 C 281.004 488.282 310.669 500.467 334.444 526.151 C 351.962 545.077 361.094 567.917 362.316 593.861 C 363.054 609.525 361.023 624.635 355.287 639.289 C 353.422 644.055 350.599 645.605 345.616 644.987 C 318.345 641.605 292.364 634.084 267.595 621.191 Z" fill="#bd50d1"/></svg>